G04 ================== begin FILE IDENTIFICATION RECORD ==================*
G04 Layout Name:  C:/Users/ebrahim.koushafar.SAMIM/Desktop/Sensor/Sensor.brd*
G04 Film Name:    L02-BOT*
G04 File Format:  Gerber RS274X*
G04 File Origin:  Cadence Allegro 17.2-S009*
G04 Origin Date:  Sun Jan 30 12:06:59 2022*
G04 *
G04 Layer:  ETCH/BOTTOM*
G04 Layer:  PIN/BOTTOM*
G04 Layer:  VIA CLASS/BOTTOM*
G04 Layer:  BOARD GEOMETRY/CUTOUT*
G04 Layer:  BOARD GEOMETRY/DESIGN_OUTLINE*
G04 *
G04 Offset:    (0.00 0.00)*
G04 Mirror:    No*
G04 Mode:      Positive*
G04 Rotation:  0*
G04 FullContactRelief:  No*
G04 UndefLineWidth:     5.00*
G04 ================== end FILE IDENTIFICATION RECORD ====================*
%FSLAX25Y25*MOIN*%
%IR0*IPPOS*OFA0.00000B0.00000*MIA0B0*SFA1.00000B1.00000*%
%ADD11C,.025*%
%ADD10C,.07*%
%ADD12C,.01*%
%ADD13C,.02*%
%ADD14C,.015*%
%ADD15C,.005*%
%ADD16C,.08004*%
%ADD17C,.09004*%
G75*
%LPD*%
G75*
G36*
G01X1020200Y796300D02*
Y970900D01*
X1020300D01*
Y971070D01*
X1020200D01*
Y1018600D01*
X1108800D01*
Y796300D01*
X1020200D01*
G37*
%LPC*%
G75*
G36*
G01X1089752Y885417D02*
X1077398Y897771D01*
Y996379D01*
X1082682Y1001663D01*
X1082646Y1001778D01*
G02X1082647Y1004422I4304J1320D01*
G01X1082682Y1004537D01*
X1079421Y1007798D01*
X1043956D01*
G03X1043764Y1007048I1J-400D01*
G02X1039436I-2164J-3948D01*
G03X1039244Y1007798I-193J350D01*
G01X1039129D01*
X1035867Y1004536D01*
G02X1033036Y1007367I-4267J-1436D01*
G01X1037471Y1011802D01*
X1081079D01*
X1085515Y1007366D01*
G02X1085628Y998797I1435J-4266D01*
G01X1085513Y998832D01*
X1081402Y994721D01*
Y899429D01*
X1093756Y887075D01*
Y862531D01*
G02Y860469I-2002J-1031D01*
G01Y855631D01*
G02Y853569I-2002J-1031D01*
G01Y845725D01*
X1079675Y831644D01*
X1070531D01*
G02Y835648I-1031J2002D01*
G01X1078017D01*
X1089752Y847383D01*
Y853569D01*
G02Y855631I2002J1031D01*
G01Y860469D01*
G02Y862531I2002J1031D01*
G01Y885417D01*
G37*
G36*
G01X1065078Y867202D02*
X1065898Y868022D01*
Y868832D01*
G02X1067755Y872734I1502J1678D01*
G03X1067970Y872946I-153J370D01*
G02X1070382Y875505I2230J314D01*
G03X1070569Y875702I-179J357D01*
G02X1073155Y878234I2231J308D01*
G03X1073370Y878446I-153J370D01*
G02X1075955Y880984I2230J314D01*
G03X1076170Y881196I-153J370D01*
G02X1079902Y879832I2230J314D01*
G01Y858578D01*
X1047922Y826598D01*
X1045398D01*
G03X1045089Y825946I1J-400D01*
G02X1038111I-3489J-2846D01*
G03X1037802Y826598I-310J252D01*
G01X1037222D01*
X1035663Y825039D01*
G02X1033539Y827163I-4063J-1939D01*
G01X1035978Y829602D01*
X1037802D01*
G03X1038111Y830254I-1J400D01*
G02Y835946I3489J2846D01*
G03X1037802Y836598I-310J252D01*
G01X1037222D01*
X1035663Y835039D01*
G02X1033539Y837163I-4063J-1939D01*
G01X1035978Y839602D01*
X1037802D01*
G03X1038111Y840254I-1J400D01*
G02Y845946I3489J2846D01*
G03X1037802Y846598I-310J252D01*
G01X1037222D01*
X1035663Y845039D01*
G02X1033539Y847163I-4063J-1939D01*
G01X1035978Y849602D01*
X1037802D01*
G03X1038111Y850254I-1J400D01*
G02Y855946I3489J2846D01*
G03X1037802Y856598I-310J252D01*
G01X1037222D01*
X1035663Y855039D01*
G02X1033539Y857163I-4063J-1939D01*
G01X1035978Y859602D01*
X1038473D01*
G03X1038757Y860283I0J400D01*
G02Y865917I2843J2817D01*
G03X1038473Y866598I-284J281D01*
G01X1035978D01*
X1033539Y869037D01*
G02X1035663Y871161I-1939J4063D01*
G01X1037222Y869602D01*
X1037802D01*
G03X1038111Y870254I-1J400D01*
G02Y875946I3489J2846D01*
G03X1037802Y876598I-310J252D01*
G01X1035978D01*
X1033539Y879037D01*
G02X1035663Y881161I-1939J4063D01*
G01X1037222Y879602D01*
X1037802D01*
G03X1038111Y880254I-1J400D01*
G02X1045089I3489J2846D01*
G03X1045398Y879602I310J-252D01*
G01X1050822D01*
X1055456Y874968D01*
X1059073Y871350D01*
X1059158Y871352D01*
G02X1060931Y867660I42J-2252D01*
G03X1061327Y867202I396J-58D01*
G01X1065078D01*
G37*
G54D16*
X1041600Y813100D03*
X1031600D03*
Y863100D03*
X1041600Y913100D03*
X1031600D03*
X1041600Y923100D03*
X1031600Y943100D03*
X1041600Y953100D03*
Y983100D03*
X1096950Y913100D03*
X1086950D03*
X1096950Y963100D03*
G54D17*
X1041600Y893100D03*
X1031600D03*
X1041600Y903100D03*
X1031600D03*
Y923100D03*
X1041600Y933100D03*
X1031600D03*
X1041600Y943100D03*
X1031600Y953100D03*
X1041600Y963100D03*
X1031600D03*
X1041600Y973100D03*
X1031600D03*
Y983100D03*
X1041600Y993100D03*
X1031600D03*
X1096950Y923100D03*
X1086950D03*
X1096950Y933100D03*
X1086950D03*
X1096950Y943100D03*
X1086950D03*
X1096950Y953100D03*
X1086950D03*
Y963100D03*
X1096950Y973100D03*
X1086950D03*
X1096950Y983100D03*
X1086950D03*
X1096950Y993100D03*
X1086950D03*
X1096950Y1003100D03*
%LPD*%
G75*
G36*
G01X1045089Y840254D02*
G03Y845946I-3489J2846D01*
G02X1045398Y846598I310J252D01*
G01X1054909D01*
G02X1055192Y845916I0J-400D01*
G01X1048878Y839602D01*
X1045398D01*
G02X1045089Y840254I1J400D01*
G37*
G36*
G01Y830254D02*
G03Y835946I-3489J2846D01*
G02X1045398Y836598I310J252D01*
G01X1050122D01*
X1076216Y862692D01*
G02X1076898Y862409I282J-283D01*
G01Y859822D01*
X1046678Y829602D01*
X1045398D01*
G02X1045089Y830254I1J400D01*
G37*
G36*
G01X1049578Y876598D02*
X1053721Y872456D01*
X1056950Y869227D01*
X1056948Y869142D01*
G03X1057469Y867660I2252J-41D01*
G02X1057073Y867202I-396J-58D01*
G01X1051922D01*
X1049522Y869602D01*
X1045398D01*
G02X1045089Y870254I1J400D01*
G03Y875946I-3489J2846D01*
G02X1045398Y876598I310J252D01*
G01X1049578D01*
G37*
G36*
G01X1044443Y860283D02*
G03Y865917I-2843J2817D01*
G02X1044727Y866598I284J281D01*
G01X1048278D01*
X1050678Y864198D01*
X1064309D01*
G02X1064592Y863516I0J-400D01*
G01X1060678Y859602D01*
X1044727D01*
G02X1044443Y860283I0J400D01*
G37*
G36*
G01X1045089Y850254D02*
G03Y855946I-3489J2846D01*
G02X1045398Y856598I310J252D01*
G01X1060409D01*
G02X1060692Y855916I0J-400D01*
G01X1054378Y849602D01*
X1045398D01*
G02X1045089Y850254I1J400D01*
G37*
G54D10*
X1041600Y813100D03*
X1031600D03*
X1041600Y823100D03*
X1031600D03*
X1041600Y833100D03*
X1031600D03*
X1041600Y843100D03*
X1031600D03*
X1041600Y853100D03*
X1031600D03*
X1041600Y863100D03*
X1031600D03*
X1041600Y873100D03*
X1031600D03*
X1041600Y883100D03*
X1031600D03*
X1041600Y893100D03*
X1031600D03*
X1041600Y903100D03*
X1031600D03*
X1041600Y913100D03*
X1031600D03*
X1041600Y923100D03*
X1031600D03*
X1041600Y933100D03*
X1031600D03*
X1041600Y943100D03*
X1031600D03*
X1041600Y953100D03*
X1031600D03*
X1041600Y963100D03*
X1031600D03*
X1041600Y973100D03*
X1031600D03*
X1041600Y983100D03*
X1031600D03*
X1041600Y993100D03*
X1031600D03*
X1041600Y1003100D03*
X1031600D03*
X1096950Y913100D03*
X1086950D03*
X1096950Y923100D03*
X1086950D03*
X1096950Y933100D03*
X1086950D03*
X1096950Y943100D03*
X1086950D03*
X1096950Y953100D03*
X1086950D03*
X1096950Y963100D03*
X1086950D03*
X1096950Y973100D03*
X1086950D03*
X1096950Y983100D03*
X1086950D03*
X1096950Y993100D03*
X1086950D03*
X1096950Y1003100D03*
X1086950D03*
G54D11*
X1069500Y833646D03*
X1067400Y870510D03*
X1059200Y869100D03*
X1078400Y881510D03*
X1075600Y878760D03*
X1072800Y876010D03*
X1070200Y873260D03*
X1091754Y854600D03*
Y861500D03*
G54D12*
G01X1031600Y823100D02*
X1036600Y828100D01*
X1047300D01*
X1078400Y859200D01*
Y881510D01*
G01X1031600Y833100D02*
X1036600Y838100D01*
X1049500D01*
X1075600Y864200D01*
Y878760D01*
G01X1072800Y876010D02*
Y874479D01*
X1072900Y874379D01*
Y872141D01*
X1072800Y872041D01*
Y865900D01*
X1055000Y848100D01*
X1036600D01*
X1031600Y843100D01*
G01Y853100D02*
X1036600Y858100D01*
X1061300D01*
X1070200Y867000D01*
Y873260D01*
G01X1031600Y873100D02*
X1036600Y868100D01*
X1048900D01*
X1051300Y865700D01*
X1065700D01*
X1067400Y867400D01*
Y870510D01*
G01X1059200Y869100D02*
X1050200Y878100D01*
X1036600D01*
X1031600Y883100D01*
G54D13*
G01Y1003100D02*
X1038300Y1009800D01*
X1080250D01*
X1086950Y1003100D01*
G01X1069500Y833646D02*
X1078846D01*
X1091754Y846554D01*
Y854600D01*
G01Y861500D02*
Y886246D01*
X1079400Y898600D01*
Y995550D01*
X1086950Y1003100D01*
G01X1091754Y861500D02*
Y854600D01*
G54D14*
G01X1028429Y809929D02*
X1031600Y813100D01*
G01D02*
X1034771Y809929D01*
G01X1038429D02*
X1041600Y813100D01*
G01D02*
X1044771Y809929D01*
G01X1031600Y813100D02*
X1034771Y816271D01*
G01X1028429D02*
X1031600Y813100D01*
G01X1041600D02*
X1044771Y816271D01*
G01X1038429D02*
X1041600Y813100D01*
G01X1028429Y859929D02*
X1031600Y863100D01*
G01D02*
X1034771Y866271D01*
G01X1028429D02*
X1031600Y863100D01*
G01D02*
X1034771Y859929D01*
G01X1038429Y919929D02*
X1041600Y923100D01*
G01D02*
X1044771Y926271D01*
G01X1038429D02*
X1041600Y923100D01*
G01D02*
X1044771Y919929D01*
G01X1028429Y909929D02*
X1031600Y913100D01*
G01D02*
X1034771Y916271D01*
G01X1028429D02*
X1031600Y913100D01*
G01D02*
X1034771Y909929D01*
G01X1038429D02*
X1041600Y913100D01*
G01D02*
X1044771Y916271D01*
G01X1038429D02*
X1041600Y913100D01*
G01D02*
X1044771Y909929D01*
G01X1038429Y949929D02*
X1041600Y953100D01*
G01D02*
X1044771Y956271D01*
G01X1038429D02*
X1041600Y953100D01*
G01D02*
X1044771Y949929D01*
G01X1028429Y939929D02*
X1031600Y943100D01*
G01D02*
X1034771Y946271D01*
G01X1028429D02*
X1031600Y943100D01*
G01D02*
X1034771Y939929D01*
G01X1038429Y979929D02*
X1041600Y983100D01*
G01D02*
X1044771Y986271D01*
G01X1038429D02*
X1041600Y983100D01*
G01D02*
X1044771Y979929D01*
G01X1083779Y909929D02*
X1086950Y913100D01*
G01D02*
X1090121Y916271D01*
G01X1083779D02*
X1086950Y913100D01*
G01D02*
X1090121Y909929D01*
G01X1093779D02*
X1096950Y913100D01*
G01D02*
X1100121Y916271D01*
G01X1093779D02*
X1096950Y913100D01*
G01D02*
X1100121Y909929D01*
G01X1093779Y959929D02*
X1096950Y963100D01*
G01D02*
X1100121Y959929D01*
G01X1096950Y963100D02*
X1100121Y966271D01*
G01X1093779D02*
X1096950Y963100D01*
G54D15*
G01X1020200Y1018600D02*
Y796300D01*
X1108800D01*
Y1018600D01*
X1020200D01*
M02*
